<svg width="35" height="50" viewBox="0 0 35 50" fill="none" xmlns="http://www.w3.org/2000/svg">
<path d="M28.0943 16.495C22.5416 9.83799 20.0869 4.17627 18.6811 0.798199C18.236 -0.266066 16.7596 -0.266066 16.3189 0.798199C14.9131 4.17627 12.4584 9.83799 6.90569 16.495C3.42861 20.6659 0 26.7714 0 32.7865C0 43.05 7.57555 50 17.5 50C27.4245 50 35 43.0457 35 32.7865C35 26.5345 31.5714 20.6659 28.0943 16.495Z" fill="#DE0A1E"/>
<path d="M15.2949 32.728H10.6389L9.83894 35H7.93494L11.9189 23.864H14.0309L18.0149 35H16.0949L15.2949 32.728ZM14.7829 31.24L12.9749 26.072L11.1509 31.24H14.7829ZM26.9792 29.992H23.7472V33.304H22.0512V29.992H18.8192V28.456H22.0512V25.144H23.7472V28.456H26.9792V29.992Z" fill="white"/>
</svg>
