<svg width="38" height="55" viewBox="0 0 38 55" fill="none" xmlns="http://www.w3.org/2000/svg">
<path d="M30.5024 18.1445C24.4737 10.8218 21.8086 4.5939 20.2823 0.878019C19.799 -0.292673 18.1962 -0.292673 17.7177 0.878019C16.1914 4.5939 13.5263 10.8218 7.49761 18.1445C3.72249 22.7325 0 29.4486 0 36.0651C0 47.355 8.22488 55 19 55C29.7751 55 38 47.3502 38 36.0651C38 29.1879 34.2775 22.7325 30.5024 18.1445Z" fill="#DE0A1E"/>
<path d="M16.4878 36.146C17.3091 36.2927 18.0058 36.7253 18.5778 37.444C19.1498 38.1627 19.4358 38.9767 19.4358 39.886C19.4358 40.6633 19.2304 41.3673 18.8198 41.998C18.4238 42.614 17.8444 43.1053 17.0818 43.472C16.3191 43.824 15.4318 44 14.4198 44H8.30375V28.71H14.1338C15.1751 28.71 16.0698 28.886 16.8178 29.238C17.5658 29.59 18.1304 30.0667 18.5118 30.668C18.8931 31.2547 19.0838 31.9147 19.0838 32.648C19.0838 33.528 18.8491 34.2613 18.3798 34.848C17.9104 35.4347 17.2798 35.8673 16.4878 36.146ZM10.8118 35.134H13.9138C14.7351 35.134 15.3731 34.9507 15.8278 34.584C16.2971 34.2027 16.5318 33.66 16.5318 32.956C16.5318 32.2667 16.2971 31.7313 15.8278 31.35C15.3731 30.954 14.7351 30.756 13.9138 30.756H10.8118V35.134ZM14.1998 41.954C15.0504 41.954 15.7178 41.7487 16.2018 41.338C16.6858 40.9273 16.9278 40.3553 16.9278 39.622C16.9278 38.874 16.6711 38.28 16.1578 37.84C15.6444 37.4 14.9624 37.18 14.1118 37.18H10.8118V41.954H14.1998ZM32.1052 37.114H27.6612V41.668H25.3292V37.114H20.8852V35.002H25.3292V30.448H27.6612V35.002H32.1052V37.114Z" fill="white"/>
</svg>
