<svg width="35" height="50" viewBox="0 0 35 50" fill="none" xmlns="http://www.w3.org/2000/svg">
<path d="M28.0943 16.495C22.5416 9.83799 20.0869 4.17627 18.6811 0.798199C18.236 -0.266066 16.7596 -0.266066 16.3189 0.798199C14.9131 4.17627 12.4584 9.83799 6.90569 16.495C3.42861 20.6659 0 26.7714 0 32.7865C0 43.05 7.57555 50 17.5 50C27.4245 50 35 43.0457 35 32.7865C35 26.5345 31.5714 20.6659 28.0943 16.495Z" fill="#DE0A1E"/>
<path d="M16.1133 30.288C16.7106 30.3947 17.2173 30.7093 17.6333 31.232C18.0493 31.7547 18.2573 32.3467 18.2573 33.008C18.2573 33.5733 18.1079 34.0853 17.8093 34.544C17.5213 34.992 17.0999 35.3493 16.5453 35.616C15.9906 35.872 15.3453 36 14.6093 36H10.1613V24.88H14.4013C15.1586 24.88 15.8093 25.008 16.3533 25.264C16.8973 25.52 17.3079 25.8667 17.5853 26.304C17.8626 26.7307 18.0013 27.2107 18.0013 27.744C18.0013 28.384 17.8306 28.9173 17.4893 29.344C17.1479 29.7707 16.6893 30.0853 16.1133 30.288ZM11.9853 29.552H14.2413C14.8386 29.552 15.3026 29.4187 15.6333 29.152C15.9746 28.8747 16.1453 28.48 16.1453 27.968C16.1453 27.4667 15.9746 27.0773 15.6333 26.8C15.3026 26.512 14.8386 26.368 14.2413 26.368H11.9853V29.552ZM14.4493 34.512C15.0679 34.512 15.5533 34.3627 15.9053 34.064C16.2573 33.7653 16.4333 33.3493 16.4333 32.816C16.4333 32.272 16.2466 31.84 15.8733 31.52C15.4999 31.2 15.0039 31.04 14.3853 31.04H11.9853V34.512H14.4493ZM25.6474 29.44V30.976H19.0714V29.44H25.6474Z" fill="white"/>
</svg>
