<svg width="35" height="50" viewBox="0 0 35 50" fill="none" xmlns="http://www.w3.org/2000/svg">
<path d="M28.0943 16.495C22.5416 9.83799 20.0869 4.17627 18.6811 0.798199C18.236 -0.266066 16.7596 -0.266066 16.3189 0.798199C14.9131 4.17627 12.4584 9.83799 6.90569 16.495C3.42861 20.6659 0 26.7714 0 32.7865C0 43.05 7.57555 50 17.5 50C27.4245 50 35 43.0457 35 32.7865C35 26.5345 31.5714 20.6659 28.0943 16.495Z" fill="#DE0A1E"/>
<path d="M12.9676 36.112C11.933 36.112 10.9783 35.872 10.1036 35.392C9.23963 34.9013 8.55163 34.224 8.03963 33.36C7.53829 32.4853 7.28763 31.504 7.28763 30.416C7.28763 29.328 7.53829 28.352 8.03963 27.488C8.55163 26.624 9.23963 25.952 10.1036 25.472C10.9783 24.9813 11.933 24.736 12.9676 24.736C14.013 24.736 14.9676 24.9813 15.8316 25.472C16.7063 25.952 17.3943 26.624 17.8956 27.488C18.397 28.352 18.6476 29.328 18.6476 30.416C18.6476 31.504 18.397 32.4853 17.8956 33.36C17.3943 34.224 16.7063 34.9013 15.8316 35.392C14.9676 35.872 14.013 36.112 12.9676 36.112ZM12.9676 34.528C13.7036 34.528 14.3596 34.3627 14.9356 34.032C15.5116 33.6907 15.9596 33.2107 16.2796 32.592C16.6103 31.9627 16.7756 31.2373 16.7756 30.416C16.7756 29.5947 16.6103 28.8747 16.2796 28.256C15.9596 27.6373 15.5116 27.1627 14.9356 26.832C14.3596 26.5013 13.7036 26.336 12.9676 26.336C12.2316 26.336 11.5756 26.5013 10.9996 26.832C10.4236 27.1627 9.97029 27.6373 9.63963 28.256C9.31963 28.8747 9.15963 29.5947 9.15963 30.416C9.15963 31.2373 9.31963 31.9627 9.63963 32.592C9.97029 33.2107 10.4236 33.6907 10.9996 34.032C11.5756 34.3627 12.2316 34.528 12.9676 34.528ZM27.6745 30.992H24.4425V34.304H22.7465V30.992H19.5145V29.456H22.7465V26.144H24.4425V29.456H27.6745V30.992Z" fill="white"/>
</svg>
