<svg width="40" height="40" viewBox="0 0 40 40" fill="none" xmlns="http://www.w3.org/2000/svg">
<path d="M18.3333 25C23.3333 25 31.6666 31.6667 31.6666 31.6667V5C31.6666 5 23.3333 11.6667 18.3333 11.6667V25ZM8.33325 25L13.3333 38.3333H19.9999L14.9999 25H8.33325ZM31.6666 23.3333C32.3232 23.3333 32.9734 23.204 33.58 22.9527C34.1866 22.7015 34.7378 22.3332 35.2021 21.8689C35.6664 21.4046 36.0347 20.8534 36.286 20.2468C36.5373 19.6401 36.6666 18.9899 36.6666 18.3333C36.6666 17.6767 36.5373 17.0265 36.286 16.4199C36.0347 15.8133 35.6664 15.2621 35.2021 14.7978C34.7378 14.3335 34.1866 13.9652 33.58 13.7139C32.9734 13.4627 32.3232 13.3333 31.6666 13.3333V23.3333ZM18.3333 31.6667C19.9999 31.6667 23.3333 30 23.3333 26.6667L18.3333 31.6667ZM3.33325 18.3333C3.33325 13.1483 6.31825 11.6667 9.99992 11.6667H18.3333V25H9.99992C6.31825 25 3.33325 23.5183 3.33325 18.3333Z" stroke="#DE0A1E" stroke-width="2"/>
</svg>
