<svg width="41" height="38" viewBox="0 0 41 38" fill="none" xmlns="http://www.w3.org/2000/svg">
<path fill-rule="evenodd" clip-rule="evenodd" d="M30.7752 21.8998V4.2346C30.7752 4.2346 31.2075 0.123474 25.878 0.123474H14.4495C9.11995 0.123474 9.5522 4.2346 9.5522 4.2346V21.8998C9.5522 21.8998 9.20545 26.0513 12.0745 26.0513H16.7271V28.3028H19.1045V33.25H16.7271V35.625H19.1045V37.8028H21.375V35.625H23.6027V33.25H21.375V28.3028H23.75V26.0513H28.253C31.4687 26.0513 30.7752 21.8998 30.7752 21.8998ZM25.2937 24.1466H23.75V23.75H16.7247V24.1466H15.1762C11.5045 24.1466 11.666 20.9261 11.666 20.9261V11.7657H16.5513V9.62585H11.666V7.01572H16.5133V4.87585H11.7918C12.0388 3.86885 12.7965 2.17785 15.1738 2.17785H25.2937C28.5 2.17785 28.8063 5.60972 28.8063 5.60972V20.9261C28.8087 20.9261 29.0937 24.1466 25.2937 24.1466Z" fill="#DE0A1E"/>
<path fill-rule="evenodd" clip-rule="evenodd" d="M14.3047 20.3253C14.3047 21.9783 15.9743 22.242 15.9743 22.242H24.3842C24.3842 22.242 26.0562 22.1802 26.0562 20.3253V12.9391H14.3047V20.3253Z" fill="#FF0000"/>
</svg>
