<svg width="52" height="52" viewBox="0 0 52 52" fill="none" xmlns="http://www.w3.org/2000/svg">
<path d="M17.0491 31.7965H23.8091V35.2466H17.0491V31.7965Z" fill="#D0CFCE"/>
<path d="M11.5557 13.9447H29.6112V22.9696C29.6112 25.7343 27.7912 27.9746 25.5451 27.9746H24.5593C22.2987 28.3841 22.3926 31.7966 22.3926 31.7966H18.3048C18.3048 31.7966 18.3987 28.3841 16.1382 27.9746H15.6225C13.3764 27.9746 11.5557 25.7343 11.5557 22.9696V13.9461V13.9447Z" fill="#DE0A1E"/>
<path d="M36.8952 14.8171H37.92C38.6783 14.8171 39.2937 15.4325 39.2937 16.1915V21.8032C39.2937 22.5615 38.6783 23.1769 37.92 23.1769H36.8952C36.7148 23.1769 36.5361 23.1413 36.3695 23.0723C36.2028 23.0033 36.0514 22.9021 35.9238 22.7745C35.7963 22.647 35.6951 22.4955 35.6261 22.3289C35.557 22.1622 35.5215 21.9836 35.5215 21.8032V16.1915C35.5215 15.4325 36.1368 14.8171 36.8952 14.8171Z" fill="#FF003D"/>
<path d="M23.1161 22.2705C23.137 22.616 23.0869 22.9622 22.9689 23.2877C22.851 23.6131 22.6677 23.911 22.4303 24.163C22.193 24.415 21.9065 24.6157 21.5887 24.7529C21.2708 24.89 20.9283 24.9607 20.5821 24.9605C20.2359 24.9603 19.8935 24.8892 19.5758 24.7517C19.2581 24.6142 18.9719 24.4132 18.7348 24.1609C18.4977 23.9086 18.3147 23.6105 18.1972 23.2849C18.0796 22.9593 18.0299 22.6131 18.0512 22.2676C18.0512 22.2676 18.0237 20.4563 20.1601 17.1795C20.1601 17.1795 20.5609 16.4999 20.9646 17.1348C23.1017 20.4115 23.1161 22.2705 23.1161 22.2705Z" fill="#DE0A1E"/>
<path d="M20.5833 16.864C22.2133 18.1777 23.0995 22.0394 23.0995 22.0394C23.0995 23.9388 21.9815 24.9673 20.5833 24.9673C20.5833 24.9673 23.3689 22.6721 20.5833 16.864Z" fill="#DE0A1E"/>
<path d="M20.429 36.0872V38.9277C20.4262 40.1653 20.858 41.3645 21.649 42.3163C22.44 43.2681 23.54 43.912 24.7572 44.1356C26.6061 44.5098 28.52 44.4086 30.3191 43.8417C31.4879 43.4385 32.4734 42.6296 33.0966 41.5618C33.7199 40.4939 33.9395 39.238 33.7157 38.022C33.6183 37.5118 33.5642 36.9943 33.5539 36.475C33.5596 35.5134 33.7674 34.5636 34.1636 33.6873C34.5599 32.8111 35.1359 32.0279 35.8542 31.3884C37.2856 30.0415 38.8998 28.1139 37.3254 23.1768" stroke="#F9144A" stroke-width="0.5" stroke-linecap="round" stroke-linejoin="round"/>
<path d="M11.5557 13.9446V12.6909C11.5557 11.6123 11.9841 10.5779 12.7468 9.81517C13.5095 9.05249 14.5439 8.62402 15.6225 8.62402C15.6225 8.62402 15.6225 8.62402 15.6225 8.62402H25.5451C26.6236 8.62402 27.6579 9.05239 28.4205 9.81492C29.1832 10.5774 29.6118 11.6117 29.6119 12.6901V13.9735" stroke="#C5C5C5" stroke-width="0.5" stroke-linecap="round" stroke-linejoin="round"/>
<path d="M17.0491 31.7965H23.8091V35.2466H17.0491V31.7965Z" stroke="#ABABAB" stroke-width="0.5" stroke-linecap="round" stroke-linejoin="round"/>
<path d="M36.8954 14.8171H37.9202C38.6786 14.8171 39.2939 15.4324 39.2939 16.1915V21.8031C39.2939 22.5615 38.6786 23.1768 37.9202 23.1768H36.8954C36.715 23.1768 36.5364 23.1413 36.3697 23.0722C36.2031 23.0032 36.0516 22.902 35.9241 22.7745C35.7965 22.6469 35.6953 22.4955 35.6263 22.3288C35.5573 22.1622 35.5217 21.9835 35.5217 21.8031V16.1915C35.5217 15.4324 36.1371 14.8171 36.8954 14.8171V14.8171Z" stroke="#DE0A1E" stroke-width="0.5" stroke-linecap="round" stroke-linejoin="round"/>
<path d="M37.4075 14.8171V10.0482" stroke="#DE0A1E" stroke-width="0.5" stroke-linecap="round" stroke-linejoin="round"/>
<path d="M11.5557 13.9446H29.6112V22.9695C29.6112 25.7342 27.7912 27.9745 25.5451 27.9745H24.5593C22.2987 28.384 22.3926 31.7965 22.3926 31.7965H18.3048C18.3048 31.7965 18.3987 28.384 16.1382 27.9745H15.6225C13.3764 27.9745 11.5557 25.7342 11.5557 22.9695V13.9461V13.9446Z" stroke="#C5C5C5" stroke-width="0.5" stroke-miterlimit="10"/>
<path d="M23.1164 22.2704C23.1372 22.6159 23.0871 22.9621 22.9692 23.2875C22.8513 23.613 22.668 23.9109 22.4306 24.1629C22.1932 24.4149 21.9068 24.6156 21.5889 24.7527C21.2711 24.8899 20.9285 24.9605 20.5824 24.9603C20.2362 24.9601 19.8937 24.8891 19.576 24.7516C19.2583 24.6141 18.9721 24.413 18.735 24.1608C18.4979 23.9085 18.315 23.6104 18.1974 23.2848C18.0799 22.9592 18.0302 22.613 18.0514 22.2675C18.0514 22.2675 18.024 20.4561 20.1603 17.1794C20.1603 17.1794 20.5611 16.4998 20.9649 17.1346C23.1019 20.4114 23.1164 22.2704 23.1164 22.2704" stroke="#DE0A1E" stroke-width="0.375" stroke-linecap="round" stroke-linejoin="round"/>
</svg>
