<svg width="32" height="32" viewBox="0 0 32 32" fill="none" xmlns="http://www.w3.org/2000/svg">
<path d="M16.9998 12.9999C16.2041 12.9999 15.441 13.3159 14.8784 13.8785C14.3158 14.4412 13.9998 15.2042 13.9998 15.9999V20.9999C13.9998 21.2651 13.8944 21.5194 13.7069 21.707C13.5193 21.8945 13.265 21.9999 12.9998 21.9999C12.7345 21.9999 12.4802 21.8945 12.2926 21.707C12.1051 21.5194 11.9998 21.2651 11.9998 20.9999V15.9999C11.9998 14.6738 12.5265 13.402 13.4642 12.4643C14.4019 11.5266 15.6737 10.9999 16.9998 10.9999H18.5858L17.2918 9.70586C17.1962 9.61362 17.1201 9.50327 17.0677 9.38127C17.0152 9.25926 16.9877 9.12804 16.9865 8.99526C16.9854 8.86248 17.0107 8.7308 17.0609 8.60791C17.1112 8.48501 17.1855 8.37336 17.2794 8.27947C17.3733 8.18557 17.4849 8.11132 17.6078 8.06104C17.7307 8.01076 17.8624 7.98546 17.9952 7.98661C18.1279 7.98776 18.2592 8.01535 18.3812 8.06776C18.5032 8.12017 18.6135 8.19635 18.7058 8.29186L21.7058 11.2919C21.7989 11.3848 21.8728 11.4951 21.9232 11.6166C21.9736 11.7381 21.9995 11.8683 21.9995 11.9999C21.9995 12.1314 21.9736 12.2616 21.9232 12.3831C21.8728 12.5046 21.7989 12.615 21.7058 12.7079L18.7058 15.7079C18.518 15.8954 18.2634 16.0006 17.9981 16.0004C17.7327 16.0002 17.4783 15.8946 17.2908 15.7069C17.1032 15.5191 16.998 15.2645 16.9982 14.9992C16.9984 14.7338 17.104 14.4794 17.2918 14.2919L18.5858 12.9999H16.9998Z" fill="white"/>
<path d="M12.4639 2.11996C12.9282 1.65553 13.4795 1.28711 14.0862 1.03576C14.6929 0.784402 15.3432 0.655029 15.9999 0.655029C16.6566 0.655029 17.3069 0.784402 17.9136 1.03576C18.5204 1.28711 19.0716 1.65553 19.5359 2.11996L29.8779 12.464C30.3424 12.9283 30.7108 13.4795 30.9621 14.0862C31.2135 14.693 31.3429 15.3432 31.3429 16C31.3429 16.6567 31.2135 17.307 30.9621 17.9137C30.7108 18.5204 30.3424 19.0717 29.8779 19.536L19.5359 29.878C19.0716 30.3424 18.5204 30.7108 17.9136 30.9622C17.3069 31.2135 16.6566 31.3429 15.9999 31.3429C15.3432 31.3429 14.6929 31.2135 14.0862 30.9622C13.4795 30.7108 12.9282 30.3424 12.4639 29.878L2.12192 19.536C1.65748 19.0717 1.28907 18.5204 1.03771 17.9137C0.786355 17.307 0.656982 16.6567 0.656982 16C0.656982 15.3432 0.786355 14.693 1.03771 14.0862C1.28907 13.4795 1.65748 12.9283 2.12192 12.464L12.4639 2.12196V2.11996ZM18.1219 3.53596C17.8433 3.25718 17.5125 3.03603 17.1484 2.88515C16.7843 2.73426 16.394 2.6566 15.9999 2.6566C15.6058 2.6566 15.2155 2.73426 14.8514 2.88515C14.4873 3.03603 14.1565 3.25718 13.8779 3.53596L3.53592 13.878C3.25714 14.1566 3.03599 14.4874 2.8851 14.8515C2.73422 15.2156 2.65656 15.6058 2.65656 16C2.65656 16.3941 2.73422 16.7844 2.8851 17.1485C3.03599 17.5126 3.25714 17.8434 3.53592 18.122L13.8779 28.464C14.1565 28.7427 14.4873 28.9639 14.8514 29.1148C15.2155 29.2657 15.6058 29.3433 15.9999 29.3433C16.394 29.3433 16.7843 29.2657 17.1484 29.1148C17.5125 28.9639 17.8433 28.7427 18.1219 28.464L28.4639 18.122C28.7427 17.8434 28.9639 17.5126 29.1147 17.1485C29.2656 16.7844 29.3433 16.3941 29.3433 16C29.3433 15.6058 29.2656 15.2156 29.1147 14.8515C28.9639 14.4874 28.7427 14.1566 28.4639 13.878L18.1219 3.53596Z" fill="white"/>
</svg>
