<svg width="40" height="40" viewBox="0 0 40 40" fill="none" xmlns="http://www.w3.org/2000/svg">
<path d="M34.5456 21.3456C34.5476 20.3386 34.2671 19.3512 33.7358 18.4957C33.2046 17.6401 32.444 16.9508 31.5404 16.5061C30.6369 16.0614 29.6267 15.8791 28.6248 15.98C27.6228 16.0808 26.6692 16.4608 25.8724 17.0767C25.0757 17.6925 24.4677 18.5196 24.1176 19.4639C23.7675 20.4081 23.6894 21.4316 23.8921 22.418C24.0948 23.4045 24.5703 24.3142 25.2643 25.0439C25.9584 25.7736 26.8433 26.2939 27.8183 26.5456V28.0729C27.8183 29.8619 27.1076 31.5776 25.8426 32.8427C24.5776 34.1077 22.8619 34.8184 21.0729 34.8184C19.2839 34.8184 17.5681 34.1077 16.3031 32.8427C15.0381 31.5776 14.3274 29.8619 14.3274 28.0729C14.3951 26.4669 14.7876 24.8913 15.4814 23.4412C16.1751 21.9912 17.1557 20.6969 18.3638 19.6365H18.182C19.4677 18.7977 20.528 17.6562 21.2698 16.3121C22.0116 14.968 22.4122 13.4624 22.4365 11.9274V6.50926C22.4365 5.43875 22.0112 4.41209 21.2543 3.65512C20.4973 2.89816 19.4707 2.4729 18.4001 2.4729H16.3638C16.0069 2.4729 15.6647 2.61465 15.4124 2.86697C15.1601 3.1193 15.0183 3.46152 15.0183 3.81835C15.0183 4.17519 15.1601 4.51741 15.4124 4.76974C15.6647 5.02206 16.0069 5.16381 16.3638 5.16381H18.3638C18.7206 5.16381 19.0628 5.30556 19.3152 5.55788C19.5675 5.81021 19.7092 6.15243 19.7092 6.50926V11.9274C19.7093 13.7053 19.0055 15.411 17.7517 16.6715C16.498 17.9321 14.7962 18.6451 13.0183 18.6547V19.6365V18.6547C12.1349 18.6595 11.2591 18.4902 10.4411 18.1566C9.6231 17.8229 8.87881 17.3314 8.25074 16.7101C7.62268 16.0888 7.12315 15.3498 6.78066 14.5355C6.43818 13.7211 6.25945 12.8473 6.25469 11.9638V6.50926C6.25469 6.15243 6.39644 5.81021 6.64876 5.55788C6.90108 5.30556 7.24331 5.16381 7.60014 5.16381H9.49105C9.84789 5.16381 10.1901 5.02206 10.4424 4.76974C10.6948 4.51741 10.8365 4.17519 10.8365 3.81835C10.8365 3.46152 10.6948 3.1193 10.4424 2.86697C10.1901 2.61465 9.84789 2.4729 9.49105 2.4729H7.60014C6.54229 2.49196 5.53421 2.92562 4.7929 3.68053C4.0516 4.43544 3.63633 5.45124 3.63651 6.50926V11.9274C3.63258 13.4397 3.99426 14.9304 4.69073 16.2727C5.3872 17.615 6.39783 18.7691 7.63651 19.6365C8.83795 20.7001 9.81172 21.9958 10.4992 23.4457C11.1866 24.8956 11.5735 26.4696 11.6365 28.0729C11.6365 29.3121 11.8806 30.5392 12.3548 31.684C12.829 32.8289 13.5241 33.8692 14.4004 34.7454C15.2766 35.6217 16.3169 36.3167 17.4617 36.791C18.6066 37.2652 19.8337 37.5093 21.0729 37.5093C22.3121 37.5093 23.5391 37.2652 24.684 36.791C25.8289 36.3167 26.8691 35.6217 27.7454 34.7454C28.6216 33.8692 29.3167 32.8289 29.7909 31.684C30.2652 30.5392 30.5092 29.3121 30.5092 28.0729V26.5456C31.6627 26.2478 32.6847 25.5757 33.4151 24.6347C34.1456 23.6937 34.5432 22.5369 34.5456 21.3456ZM29.0911 24.0365C28.5588 24.0365 28.0386 23.8787 27.5961 23.583C27.1535 23.2874 26.8086 22.8671 26.605 22.3754C26.4013 21.8837 26.348 21.3426 26.4518 20.8207C26.5557 20.2987 26.812 19.8192 27.1883 19.4429C27.5646 19.0665 28.0441 18.8103 28.5661 18.7064C29.0881 18.6026 29.6291 18.6559 30.1208 18.8596C30.6125 19.0632 31.0328 19.4081 31.3285 19.8506C31.6241 20.2932 31.782 20.8134 31.782 21.3456C31.782 21.699 31.7124 22.0489 31.5771 22.3754C31.4419 22.7019 31.2437 22.9985 30.9938 23.2484C30.7439 23.4983 30.4473 23.6965 30.1208 23.8317C29.7943 23.9669 29.4444 24.0365 29.0911 24.0365Z" fill="#DE0A1E"/>
</svg>
