<svg width="40" height="40" viewBox="0 0 40 40" fill="none" xmlns="http://www.w3.org/2000/svg">
<path d="M7.5 3.75V17.5H9.20875L10 15.525V6.25H22.5V13.75H30V33.75H10V26.5575L9.93375 26.4913L8.445 25H7.5V36.25H32.5V11.9925L32.1488 11.6013L24.6488 4.10125L24.2575 3.75H7.5ZM25 8.0475L28.2038 11.25H25V8.04625V8.0475ZM13.7113 12.9838L10.7913 20.2738L10.5175 20H2.5V22.5H9.4825L11.7037 24.7262L13.7887 19.5162L17.5387 28.2663L20.1262 21.7975L20.4787 22.5H22.8375C23.1127 22.9766 23.5374 23.3491 24.0459 23.5597C24.5543 23.7703 25.118 23.8073 25.6496 23.6648C26.1812 23.5224 26.6509 23.2085 26.9859 22.7719C27.321 22.3353 27.5026 21.8003 27.5026 21.25C27.5026 20.6997 27.321 20.1647 26.9859 19.7281C26.6509 19.2915 26.1812 18.9776 25.6496 18.8352C25.118 18.6927 24.5543 18.7297 24.0459 18.9403C23.5374 19.1509 23.1127 19.5234 22.8375 20H22.0213L19.8725 15.7025L17.46 21.7337L13.71 12.9838H13.7113Z" fill="#DE0A1E"/>
</svg>
