<svg width="22" height="22" viewBox="0 0 22 22" fill="none" xmlns="http://www.w3.org/2000/svg">
<path d="M6.875 2.66956L2.0625 5.07581V19.25H19.9375V6.87499H11.6875V5.07581L6.875 2.66956ZM6.875 4.20543L10.3125 5.92418V17.875H3.4375V5.92418L6.875 4.20543ZM4.8125 6.87499V8.24999H6.1875V6.87499H4.8125ZM7.5625 6.87499V8.24999H8.9375V6.87499H7.5625ZM11.6875 8.24999H18.5625V17.875H11.6875V8.24999ZM4.8125 9.62499V11H6.1875V9.62499H4.8125ZM7.5625 9.62499V11H8.9375V9.62499H7.5625ZM13.0625 9.62499V11H14.4375V9.62499H13.0625ZM15.8125 9.62499V11H17.1875V9.62499H15.8125ZM4.8125 12.375V13.75H6.1875V12.375H4.8125ZM7.5625 12.375V13.75H8.9375V12.375H7.5625ZM13.0625 12.375V13.75H14.4375V12.375H13.0625ZM15.8125 12.375V13.75H17.1875V12.375H15.8125ZM4.8125 15.125V16.5H6.1875V15.125H4.8125ZM7.5625 15.125V16.5H8.9375V15.125H7.5625ZM13.0625 15.125V16.5H14.4375V15.125H13.0625ZM15.8125 15.125V16.5H17.1875V15.125H15.8125Z" fill="#DE0A1E"/>
</svg>
