<svg width="24" height="24" viewBox="0 0 24 24" fill="none" xmlns="http://www.w3.org/2000/svg">
<path d="M16.8001 3.59998C17.7184 3.59992 18.6019 3.95077 19.27 4.58072C19.9381 5.21067 20.3402 6.0721 20.3941 6.98878L20.4001 7.19998V12.4548C20.4 13.0182 20.2016 13.5637 19.8397 13.9956L19.6969 14.1516L14.1517 19.6968C13.7533 20.0952 13.2274 20.3407 12.6661 20.3904L12.4549 20.4H7.2001C6.28184 20.4 5.39828 20.0492 4.73018 19.4192C4.06209 18.7893 3.65997 17.9278 3.6061 17.0112L3.6001 16.8V7.19998C3.60005 6.28172 3.95089 5.39816 4.58084 4.73006C5.21079 4.06197 6.07223 3.65985 6.9889 3.60598L7.2001 3.59998H16.8001ZM16.8001 4.79998H7.2001C6.59461 4.79978 6.01142 5.02846 5.56744 5.44017C5.12346 5.85188 4.85151 6.41619 4.8061 7.01998L4.8001 7.19998V16.8C4.79991 17.4055 5.02859 17.9887 5.44029 18.4326C5.852 18.8766 6.41631 19.1486 7.0201 19.194L7.2001 19.2H12.0001V15.6C12 14.6817 12.3509 13.7982 12.9808 13.1301C13.6108 12.462 14.4722 12.0598 15.3889 12.006L15.6001 12H19.2001V7.19998C19.2003 6.59448 18.9716 6.0113 18.5599 5.56732C18.1482 5.12334 17.5839 4.85139 16.9801 4.80598L16.8001 4.79998ZM18.9397 13.2012L15.6001 13.2C14.9946 13.1998 14.4114 13.4285 13.9674 13.8402C13.5235 14.2519 13.2515 14.8162 13.2061 15.42L13.2001 15.6V18.9372L13.3033 18.8484L18.8485 13.3032C18.8809 13.2708 18.9109 13.2372 18.9385 13.2012H18.9397Z" fill="#DE0A1E"/>
</svg>
