<svg width="30" height="30" viewBox="0 0 30 30" fill="none" xmlns="http://www.w3.org/2000/svg">
<path d="M14.9999 28.5667C15.5249 28.5546 16.0286 28.3572 16.4221 28.0095C16.8156 27.6618 17.0734 27.1862 17.1499 26.6667H12.7666C12.8453 27.2003 13.1152 27.6871 13.526 28.0366C13.9368 28.3861 14.4606 28.5745 14.9999 28.5667Z" fill="#272A2F"/>
<path d="M27.0915 23.1917C26.2879 22.4753 25.5844 21.654 24.9998 20.75C24.3617 19.5021 23.9792 18.1394 23.8748 16.7417V12.625C23.8715 12.125 23.8269 11.6261 23.7415 11.1334C23.0856 11.0022 22.4552 10.7659 21.8748 10.4334C22.0961 11.1457 22.2085 11.8874 22.2082 12.6334V16.75C22.3103 18.455 22.7793 20.1179 23.5832 21.625C24.1585 22.5367 24.8412 23.376 25.6165 24.125H4.27484C5.05018 23.376 5.73284 22.5367 6.30817 21.625C7.11201 20.1179 7.58103 18.455 7.68317 16.75V12.625C7.67878 11.6606 7.86468 10.7048 8.23021 9.81229C8.59573 8.9198 9.13372 8.10818 9.81335 7.42391C10.493 6.73963 11.3009 6.19613 12.1909 5.82453C13.0809 5.45293 14.0354 5.26054 14.9998 5.25835C16.4113 5.25948 17.7911 5.6769 18.9665 6.45835C18.8369 5.98251 18.7642 5.49298 18.7498 5.00002V4.47502C17.8797 4.04699 16.9449 3.76543 15.9832 3.64169V2.59169C15.9832 2.29663 15.866 2.01367 15.6573 1.80503C15.4487 1.5964 15.1657 1.47919 14.8707 1.47919C14.5756 1.47919 14.2926 1.5964 14.084 1.80503C13.8754 2.01367 13.7582 2.29663 13.7582 2.59169V3.68335C11.6046 3.98715 9.63365 5.05981 8.20919 6.7033C6.78473 8.34679 6.00294 10.4501 6.00817 12.625V16.7417C5.9038 18.1394 5.52132 19.5021 4.88317 20.75C4.30891 21.652 3.61667 22.4731 2.82484 23.1917C2.73595 23.2698 2.66471 23.3659 2.61585 23.4737C2.567 23.5814 2.54165 23.6984 2.5415 23.8167V24.95C2.5415 25.171 2.6293 25.383 2.78558 25.5393C2.94186 25.6956 3.15382 25.7834 3.37484 25.7834H26.5415C26.7625 25.7834 26.9745 25.6956 27.1308 25.5393C27.287 25.383 27.3748 25.171 27.3748 24.95V23.8167C27.3747 23.6984 27.3493 23.5814 27.3005 23.4737C27.2516 23.3659 27.1804 23.2698 27.0915 23.1917Z" fill="#272A2F"/>
<path d="M24.9999 9.16665C27.3011 9.16665 29.1666 7.30117 29.1666 4.99998C29.1666 2.69879 27.3011 0.833313 24.9999 0.833313C22.6987 0.833313 20.8333 2.69879 20.8333 4.99998C20.8333 7.30117 22.6987 9.16665 24.9999 9.16665Z" fill="#DE0A1E"/>
</svg>
